Coordinates
version=1
nRows=13
nColumns=40
inDegrees=yes

Units are S.I. units (second, meters, Newtons, ...)
Angles are in degrees.

endheader
time	pelvis_tilt	pelvis_list	pelvis_rotation	pelvis_tx	pelvis_ty	pelvis_tz	hip_flexion_r	hip_adduction_r	hip_rotation_r	knee_angle_r	knee_angle_r_beta	ankle_angle_r	subtalar_angle_r	mtp_angle_r	hip_flexion_l	hip_adduction_l	hip_rotation_l	knee_angle_l	knee_angle_l_beta	ankle_angle_l	subtalar_angle_l	mtp_angle_l	lumbar_extension	lumbar_bending	lumbar_rotation	arm_flex_r	arm_add_r	arm_rot_r	elbow_flex_r	pro_sup_r	wrist_flex_r	wrist_dev_r	arm_flex_l	arm_add_l	arm_rot_l	elbow_flex_l	pro_sup_l	wrist_flex_l	wrist_dev_l
      3.00250000	     -4.55086436	     -4.17974145	     -5.66433488	      0.75673390	      0.92480072	      0.49572815	     20.22449239	      2.17645914	    -12.20991045	     19.33630806	     19.33630806	      5.89259123	      0.77582058	     -5.24044525	      8.33433352	     -8.22087551	     -5.82968880	     36.11314083	     36.11314083	     15.94474695	    -17.20005425	     -0.89851493	     -9.24802752	      7.23229479	      0.24058422	     -3.82737651	    -11.87616432	     -9.01449638	     31.54483020	     46.63335753	      0.00000000	      0.00000000	      6.74264118	    -11.91653407	    -16.34882711	     83.80408597	     47.90294441	      0.00000000	      0.00000000
      3.01514286	     -4.59855870	     -4.26981592	     -5.36354517	      0.75611601	      0.92530933	      0.49760098	     19.64062046	      2.30698148	    -12.63748584	     18.97689566	     18.97689566	      6.18125705	      1.15434312	     -5.61231931	     10.13853711	     -8.61003681	     -4.98019616	     39.77841962	     39.77841962	     15.63597359	    -17.57661176	      1.22916408	     -9.23176470	      7.39490513	      0.87639613	     -3.75196456	    -12.18026284	     -8.36237391	     34.30635671	     46.43721527	      0.00000000	      0.00000000	      7.40744055	    -11.52577574	    -14.89454220	     81.09619869	     47.78841041	      0.00000000	      0.00000000
      3.02778571	     -4.56035490	     -4.48027773	     -5.05729803	      0.75542508	      0.92579873	      0.49950697	     18.97294475	      2.59292771	    -12.95073964	     18.64218936	     18.64218936	      6.52307560	      1.32476008	     -5.72380632	     11.78397424	     -9.16246907	     -4.27537784	     43.15418029	     43.15418029	     14.49073845	    -18.02508331	      1.37197558	     -9.40135868	      7.57077616	      0.85279880	     -2.42673900	    -12.27152952	     -8.31852523	     35.06854292	     46.40911723	      0.00000000	      0.00000000	      7.08597571	    -11.15194895	    -14.47479377	     80.47139341	     47.75035995	      0.00000000	      0.00000000
      3.04042857	     -4.59868150	     -4.60023112	     -4.75812553	      0.75455065	      0.92613905	      0.50118641	     18.40535625	      2.77261943	    -13.30423090	     18.27597996	     18.27597996	      6.65077966	      1.54366823	     -6.30602836	     13.64983711	     -9.47570062	     -3.35223056	     46.63527264	     46.63527264	     14.58399398	    -18.12702400	      4.90323390	     -9.42262980	      7.71299479	      1.25660936	     -1.79416925	    -12.68679962	     -7.46426429	     37.17868902	     46.24450352	      0.00000000	      0.00000000	      7.44252822	    -10.75582153	    -13.49932201	     78.09584204	     47.66927892	      0.00000000	      0.00000000
      3.05307143	     -4.59669247	     -4.81418010	     -4.44891729	      0.75364459	      0.92639743	      0.50290411	     17.83710943	      3.06591065	    -13.59152795	     18.00800852	     18.00800852	      6.94553849	      1.62084723	     -6.38890992	     15.30657300	     -9.97117072	     -2.65450399	     49.54293944	     49.54293944	     13.54429373	    -18.37437154	      5.18595105	     -9.55365000	      7.87961071	      1.26767496	     -0.36614037	    -12.86153316	     -7.42144497	     37.95267434	     46.21797317	      0.00000000	      0.00000000	      6.98823212	    -10.43996980	    -13.15450862	     77.30477647	     47.63193119	      0.00000000	      0.00000000
      3.06571429	     -4.63879234	     -4.90518671	     -4.17497389	      0.75258812	      0.92661964	      0.50446150	     17.35589823	      3.23780752	    -13.77816973	     17.75307048	     17.75307048	      7.12505645	      1.61685622	     -6.70346330	     17.06296848	    -10.20334005	     -1.85764877	     52.30715897	     52.30715897	     13.74886114	    -18.41232141	      8.68562816	     -9.57638856	      7.95879724	      1.60883495	      0.57462610	    -13.38613402	     -6.37056578	     39.74471494	     46.07228485	      0.00000000	      0.00000000	      7.30636121	    -10.00239407	    -12.61314371	     74.49821589	     47.56574130	      0.00000000	      0.00000000
      3.07835714	     -4.67971910	     -5.06736438	     -3.86999927	      0.75151408	      0.92675633	      0.50602903	     16.90350561	      3.48219976	    -13.98250199	     17.56206162	     17.56206162	      7.38684210	      1.57678503	     -6.75321097	     18.65702015	    -10.60684000	     -1.26094189	     54.43126505	     54.43126505	     13.08612951	    -18.52080705	      9.16709026	     -9.65884953	      8.01864983	      1.57866518	      2.07789237	    -13.59594160	     -6.24729905	     40.68523776	     46.03498288	      0.00000000	      0.00000000	      6.72617900	     -9.81126828	    -12.32402501	     73.39073373	     47.52644704	      0.00000000	      0.00000000
      3.09100000	     -4.72436929	     -5.20722003	     -3.54662890	      0.75037836	      0.92682455	      0.50749147	     16.49020429	      3.70774750	    -14.12098078	     17.42301112	     17.42301112	      7.72252703	      1.42534153	     -6.80945173	     20.20671763	    -10.94947880	     -0.66711012	     56.12055256	     56.12055256	     12.67225345	    -18.62744875	      9.85054911	     -9.72954538	      8.10280481	      1.52127829	      3.57496568	    -13.85257226	     -6.00873850	     41.68627876	     45.98997178	      0.00000000	      0.00000000	      6.27091940	     -9.60408936	    -12.13942102	     71.78876404	     47.48624004	      0.00000000	      0.00000000
      3.10364286	     -4.74342297	     -5.19587257	     -3.26728420	      0.74914310	      0.92706209	      0.50880082	     16.10180662	      3.77892292	    -14.09137507	     17.33878223	     17.33878223	      8.02787388	      1.14732343	     -6.75106293	     21.67221178	    -11.05757908	     -0.13631030	     57.37139816	     57.37139816	     13.21041144	    -18.62942957	     12.62618829	     -9.79460427	      8.00283159	      2.01960996	      4.47775894	    -14.69562963	     -4.36835198	     43.67344237	     45.82074692	      0.00000000	      0.00000000	      6.75548991	     -9.00070536	    -12.04972947	     68.31542294	     47.43466441	      0.00000000	      0.00000000
      3.11628571	     -4.76612244	     -5.22108648	     -2.92374247	      0.74787481	      0.92724196	      0.51005509	     15.73083842	      3.87232994	    -14.19735709	     17.27966897	     17.27966897	      8.31863934	      0.87278037	     -6.72162600	     23.01177264	    -11.27872787	      0.24382091	     57.96413044	     57.96413044	     13.02903186	    -18.68751147	     12.87094428	     -9.94260207	      7.92007505	      1.84401838	      6.11339853	    -14.89255220	     -4.20544628	     44.79934255	     45.77779974	      0.00000000	      0.00000000	      6.06963402	     -8.98066506	    -11.93355708	     66.78635102	     47.39692795	      0.00000000	      0.00000000
      3.12892857	     -4.75508321	     -5.20275770	     -2.57534665	      0.74652979	      0.92750000	      0.51112717	     15.36669854	      3.92653968	    -14.12546122	     17.28062070	     17.28062070	      8.69358815	      0.37497907	     -6.51049630	     24.23224308	    -11.38948113	      0.62264950	     58.03487393	     58.03487393	     13.19693098	    -18.74337101	     13.76611866	    -10.06752418	      7.84410462	      2.07108264	      7.29185075	    -15.60913724	     -3.04189979	     46.51605832	     45.65925807	      0.00000000	      0.00000000	      6.31819448	     -8.50602837	    -12.22532984	     63.32815484	     47.36684624	      0.00000000	      0.00000000
      3.14157143	     -4.79124796	     -5.09607522	     -2.24855037	      0.74526404	      0.92769108	      0.51213844	     15.01937308	      3.86548652	    -14.18690984	     17.22587910	     17.22587910	      8.98018582	      0.20364043	     -6.53258417	     25.34762173	    -11.45190606	      0.79238640	     57.52132765	     57.52132765	     13.21998040	    -18.76886163	     13.80614602	    -10.18592101	      7.50082423	      2.24773107	      8.80308890	    -16.04455578	     -3.13876145	     47.31006992	     45.64331021	      0.00000000	      0.00000000	      5.61185874	     -8.23122883	    -12.08881899	     62.55313586	     47.33793272	      0.00000000	      0.00000000
      3.15421429	     -4.83866827	     -5.00363585	     -1.79976207	      0.74392883	      0.92789176	      0.51292969	     14.71465422	      3.83569868	    -14.12566632	     17.21663208	     17.21663208	      9.36686064	     -0.42894746	     -6.15782636	     26.41748801	    -11.40895157	      1.10754452	     56.52720433	     56.52720433	     13.39969855	    -18.79732725	     14.23247762	    -10.20247299	      7.33849818	      1.96765582	      9.85566987	    -16.59725860	     -1.76439553	     50.16291382	     45.48118791	      0.00000000	      0.00000000	      5.98666115	     -8.12418244	    -12.65580378	     57.75327020	     47.30862358	      0.00000000	      0.00000000
